<?xml version="1.0" standalone="no"?>
<!DOCTYPE svg PUBLIC "-//W3C//DTD SVG 20010904//EN"
 "http://www.w3.org/TR/2001/REC-SVG-20010904/DTD/svg10.dtd">
<svg version="1.0" xmlns="http://www.w3.org/2000/svg"
 width="120.000000pt" height="80.000000pt" viewBox="0 0 120.000000 80.000000"
 preserveAspectRatio="xMidYMid meet">

<g transform="translate(0.000000,80.000000) scale(0.100000,-0.100000)"
fill="#000000" stroke="none">
<path d="M538 504 c-77 -41 -75 -169 2 -209 84 -43 180 13 180 105 0 92 -99
149 -182 104z m101 -10 c30 -12 43 -25 55 -55 14 -35 14 -43 0 -78 -12 -30
-25 -43 -55 -55 -35 -14 -43 -14 -78 0 -30 12 -43 25 -55 55 -14 35 -14 43 0
78 13 34 48 61 91 70 2 1 20 -6 42 -15z"/>
<path d="M579 455 c-1 -5 -1 -14 0 -19 1 -5 -6 -3 -15 5 -10 8 -15 9 -11 2 4
-6 2 -15 -4 -19 -8 -4 -7 -9 2 -15 12 -8 12 -10 0 -18 -9 -6 -10 -11 -2 -15 6
-4 8 -12 5 -18 -4 -6 -2 -8 4 -4 6 3 14 1 18 -5 4 -8 9 -7 15 2 8 12 11 11 19
-1 9 -14 15 -7 11 14 -1 5 6 3 15 -5 10 -8 15 -9 11 -2 -4 6 -2 15 4 19 8 4 7
9 -2 15 -12 8 -12 10 0 18 9 6 10 11 2 15 -6 4 -8 12 -5 18 4 6 2 8 -4 4 -6
-3 -14 -1 -18 5 -4 8 -9 7 -15 -2 -8 -12 -11 -11 -19 1 -5 8 -10 11 -11 5z"/>
<path d="M0 130 l0 -130 600 0 600 0 0 130 0 130 -600 0 -600 0 0 -130z"/>
</g>
</svg>
