<svg xmlns="http://www.w3.org/2000/svg" xmlns:xlink="http://www.w3.org/1999/xlink" zoomAndPan="magnify" viewBox="37.57 140.08 280.98 57.08" preserveAspectRatio="xMidYMid meet" version="1.0"><defs><g></g><clipPath id="4093443e03"><path d="M 175.351562 140.03125 L 227.101562 140.03125 L 227.101562 197.03125 L 175.351562 197.03125 Z M 175.351562 140.03125 " clip-rule="nonzero"></path></clipPath></defs><g clip-path="url(#4093443e03)"><path fill="#282120" d="M 225.222656 183.550781 C 223.652344 182.292969 221.554688 182.234375 219.703125 182.183594 L 219.214844 182.167969 C 218.773438 182.152344 218.371094 182.121094 217.992188 182.074219 C 219.164062 179.203125 219.84375 176.265625 219.84375 173.609375 C 219.84375 170.972656 219.277344 168.582031 218.21875 166.503906 C 218.523438 166.46875 218.855469 166.445312 219.214844 166.433594 L 219.703125 166.417969 C 221.554688 166.367188 223.652344 166.308594 225.21875 165.050781 C 226.640625 163.917969 227.390625 161.894531 227.230469 159.648438 C 227.050781 156.960938 225.660156 154.59375 223.605469 153.472656 C 221.210938 152.152344 218.046875 152.84375 216.691406 154.980469 C 215.957031 156.144531 215.832031 157.484375 215.707031 158.78125 C 215.667969 159.222656 215.625 159.660156 215.558594 160.089844 C 215.4375 160.882812 215.15625 161.617188 214.769531 162.167969 C 212.417969 160.164062 209.3125 158.789062 205.609375 158.183594 C 208.03125 155.597656 209.59375 151.257812 209.59375 148.324219 C 209.59375 143.777344 205.898438 140.078125 201.355469 140.078125 C 196.816406 140.078125 193.121094 143.777344 193.121094 148.324219 C 193.121094 151.257812 194.683594 155.597656 197.105469 158.183594 C 193.402344 158.789062 190.296875 160.164062 187.945312 162.167969 C 187.558594 161.617188 187.273438 160.882812 187.15625 160.089844 C 187.089844 159.660156 187.046875 159.222656 187.003906 158.785156 C 186.882812 157.484375 186.753906 156.144531 186.019531 154.980469 C 184.667969 152.84375 181.503906 152.152344 179.109375 153.472656 C 177.054688 154.59375 175.664062 156.960938 175.484375 159.644531 C 175.324219 161.894531 176.074219 163.917969 177.492188 165.054688 C 179.0625 166.3125 181.160156 166.371094 183.007812 166.421875 L 183.496094 166.433594 C 183.855469 166.449219 184.1875 166.472656 184.496094 166.503906 C 183.4375 168.582031 182.871094 170.972656 182.871094 173.613281 C 182.871094 176.269531 183.550781 179.203125 184.722656 182.074219 C 184.34375 182.121094 183.941406 182.15625 183.5 182.171875 L 183.011719 182.183594 C 181.160156 182.234375 179.0625 182.292969 177.492188 183.550781 C 176.074219 184.6875 175.324219 186.710938 175.484375 188.957031 C 175.664062 191.644531 177.054688 194.011719 179.109375 195.132812 C 179.933594 195.585938 180.851562 195.804688 181.753906 195.804688 C 183.46875 195.804688 185.136719 195.023438 186.023438 193.625 C 186.753906 192.460938 186.882812 191.121094 187.003906 189.820312 C 187.046875 189.382812 187.089844 188.945312 187.15625 188.511719 C 187.214844 188.109375 187.324219 187.710938 187.46875 187.34375 C 191.035156 192.855469 196.21875 197.160156 201.355469 197.160156 C 206.496094 197.160156 211.679688 192.859375 215.246094 187.34375 C 215.390625 187.710938 215.5 188.109375 215.558594 188.515625 C 215.625 188.945312 215.667969 189.382812 215.710938 189.820312 C 215.832031 191.121094 215.960938 192.460938 216.695312 193.625 C 217.578125 195.027344 219.246094 195.804688 220.960938 195.804688 C 221.863281 195.804688 222.78125 195.589844 223.605469 195.132812 C 225.660156 194.011719 227.050781 191.644531 227.230469 188.960938 C 227.390625 186.710938 226.640625 184.6875 225.222656 183.550781 Z M 216.8125 160.28125 C 216.882812 159.828125 216.929688 159.363281 216.972656 158.902344 C 217.085938 157.699219 217.195312 156.5625 217.765625 155.65625 C 218.753906 154.09375 221.199219 153.59375 222.996094 154.582031 C 224.675781 155.5 225.8125 157.472656 225.964844 159.734375 C 226.097656 161.570312 225.523438 163.1875 224.429688 164.0625 C 223.191406 165.054688 221.402344 165.105469 219.667969 165.152344 L 219.171875 165.164062 C 218.5625 165.1875 218.023438 165.238281 217.53125 165.3125 C 217.007812 164.492188 216.398438 163.726562 215.710938 163.027344 C 216.257812 162.300781 216.652344 161.335938 216.816406 160.28125 Z M 201.355469 141.34375 C 205.199219 141.34375 208.324219 144.476562 208.324219 148.320312 C 208.324219 151.21875 206.554688 155.820312 203.992188 157.964844 C 202.304688 157.796875 200.402344 157.796875 198.722656 157.964844 C 196.160156 155.820312 194.386719 151.21875 194.386719 148.320312 C 194.386719 144.476562 197.515625 141.34375 201.355469 141.34375 Z M 183.542969 165.164062 L 183.046875 165.152344 C 181.3125 165.101562 179.523438 165.054688 178.285156 164.0625 C 177.191406 163.1875 176.617188 161.566406 176.75 159.730469 C 176.902344 157.472656 178.039062 155.5 179.71875 154.582031 C 181.515625 153.59375 183.960938 154.09375 184.949219 155.65625 C 185.519531 156.5625 185.628906 157.699219 185.742188 158.902344 C 185.785156 159.363281 185.832031 159.828125 185.902344 160.28125 C 186.0625 161.335938 186.457031 162.300781 187.003906 163.027344 C 186.316406 163.726562 185.707031 164.492188 185.183594 165.308594 C 184.691406 165.234375 184.152344 165.1875 183.542969 165.164062 Z M 185.902344 188.320312 C 185.832031 188.773438 185.785156 189.238281 185.742188 189.699219 C 185.628906 190.902344 185.519531 192.039062 184.949219 192.945312 C 183.960938 194.507812 181.515625 195.007812 179.71875 194.019531 C 178.039062 193.101562 176.902344 191.128906 176.75 188.867188 C 176.617188 187.03125 177.191406 185.414062 178.285156 184.539062 C 179.523438 183.546875 181.316406 183.496094 183.046875 183.449219 L 183.542969 183.433594 C 184.164062 183.414062 184.726562 183.363281 185.242188 183.28125 C 185.675781 184.226562 186.160156 185.15625 186.6875 186.0625 C 186.304688 186.71875 186.023438 187.5 185.902344 188.316406 Z M 201.355469 195.890625 C 193.042969 195.890625 184.136719 182.8125 184.136719 173.609375 C 184.136719 165.726562 189.671875 160.222656 198.582031 159.25 C 199.453125 159.152344 200.386719 159.101562 201.355469 159.101562 C 202.328125 159.101562 203.261719 159.152344 204.136719 159.25 C 213.042969 160.222656 218.578125 165.726562 218.578125 173.609375 C 218.578125 182.8125 209.671875 195.890625 201.355469 195.890625 Z M 225.964844 188.871094 C 225.8125 191.128906 224.675781 193.101562 222.996094 194.019531 C 221.199219 195.007812 218.753906 194.507812 217.765625 192.945312 C 217.195312 192.039062 217.085938 190.902344 216.972656 189.699219 C 216.929688 189.238281 216.882812 188.773438 216.816406 188.324219 C 216.691406 187.503906 216.410156 186.722656 216.027344 186.0625 C 216.554688 185.15625 217.039062 184.226562 217.472656 183.28125 C 217.988281 183.363281 218.550781 183.414062 219.171875 183.4375 L 219.667969 183.453125 C 221.398438 183.5 223.191406 183.550781 224.429688 184.542969 C 225.523438 185.417969 226.097656 187.035156 225.964844 188.871094 Z M 225.964844 188.871094 " fill-opacity="1" fill-rule="nonzero"></path></g><path fill="#282120" d="M 201.355469 160.234375 C 193.9375 160.234375 185.273438 163.738281 185.273438 173.609375 C 185.273438 182.898438 194.292969 194.753906 201.355469 194.753906 C 208.421875 194.753906 217.441406 182.898438 217.441406 173.609375 C 217.441406 163.738281 208.777344 160.234375 201.355469 160.234375 Z M 201.355469 193.484375 C 194.988281 193.484375 186.539062 182.152344 186.539062 173.609375 C 186.539062 164.675781 194.523438 161.503906 201.355469 161.503906 C 208.191406 161.503906 216.175781 164.675781 216.175781 173.609375 C 216.175781 182.152344 207.726562 193.484375 201.355469 193.484375 Z M 201.355469 193.484375 " fill-opacity="1" fill-rule="nonzero"></path><path fill="#282120" d="M 189.078125 173.609375 C 189.078125 173.046875 189.117188 172.5 189.191406 171.988281 C 189.246094 171.640625 189.003906 171.316406 188.65625 171.265625 C 188.300781 171.214844 187.988281 171.457031 187.9375 171.800781 C 187.851562 172.378906 187.808594 172.984375 187.808594 173.609375 C 187.808594 177.238281 189.265625 180.652344 190.488281 182.875 C 190.601562 183.085938 190.820312 183.207031 191.042969 183.207031 C 191.148438 183.207031 191.25 183.179688 191.347656 183.125 C 191.65625 182.957031 191.769531 182.574219 191.597656 182.265625 C 190.449219 180.171875 189.078125 176.96875 189.078125 173.609375 Z M 189.078125 173.609375 " fill-opacity="1" fill-rule="nonzero"></path><path fill="#282120" d="M 193.128906 184.714844 C 192.929688 184.425781 192.53125 184.359375 192.246094 184.5625 C 191.960938 184.765625 191.890625 185.160156 192.09375 185.445312 C 192.898438 186.582031 193.769531 187.621094 194.675781 188.539062 C 194.800781 188.664062 194.964844 188.730469 195.128906 188.730469 C 195.289062 188.730469 195.449219 188.667969 195.574219 188.542969 C 195.824219 188.296875 195.824219 187.894531 195.578125 187.648438 C 194.71875 186.777344 193.894531 185.792969 193.128906 184.714844 Z M 193.128906 184.714844 " fill-opacity="1" fill-rule="nonzero"></path><path fill="#282120" d="M 198.761719 145.21875 C 198.761719 144.566406 198.234375 144.042969 197.585938 144.042969 C 196.9375 144.042969 196.410156 144.566406 196.410156 145.21875 C 196.410156 145.867188 196.9375 146.390625 197.585938 146.390625 C 198.234375 146.390625 198.761719 145.867188 198.761719 145.21875 Z M 198.761719 145.21875 " fill-opacity="1" fill-rule="nonzero"></path><path fill="#282120" d="M 205.128906 146.390625 C 205.777344 146.390625 206.304688 145.867188 206.304688 145.21875 C 206.304688 144.566406 205.777344 144.042969 205.128906 144.042969 C 204.480469 144.042969 203.953125 144.566406 203.953125 145.21875 C 203.953125 145.867188 204.480469 146.390625 205.128906 146.390625 Z M 205.128906 146.390625 " fill-opacity="1" fill-rule="nonzero"></path><g fill="#000000" fill-opacity="1"><g transform="translate(36.072267, 192.994982)"><g><path d="M 22.625 0 L 15.40625 0 C 12.71875 0 10.625 -0.625 9.125 -1.875 C 7.632812 -3.132812 6.890625 -5.175781 6.890625 -8 L 6.890625 -29.4375 L 1.5 -29.4375 L 1.5 -36.46875 L 6.890625 -36.46875 L 6.890625 -49.59375 L 15.671875 -49.59375 L 15.671875 -36.46875 L 22.6875 -36.46875 L 22.6875 -29.4375 L 15.671875 -29.4375 L 15.671875 -10.65625 C 15.671875 -9.707031 15.832031 -8.90625 16.15625 -8.25 C 16.476562 -7.601562 17.3125 -7.28125 18.65625 -7.28125 L 22.625 -7.28125 Z M 22.625 0 "></path></g></g></g><g fill="#000000" fill-opacity="1"><g transform="translate(60.964298, 192.994982)"><g><path d="M 21.0625 0.71875 C 17.332031 0.71875 14.066406 -0.09375 11.265625 -1.71875 C 8.472656 -3.34375 6.304688 -5.5625 4.765625 -8.375 C 3.234375 -11.195312 2.46875 -14.40625 2.46875 -18 C 2.46875 -20.382812 2.835938 -22.722656 3.578125 -25.015625 C 4.316406 -27.316406 5.441406 -29.390625 6.953125 -31.234375 C 8.472656 -33.078125 10.378906 -34.539062 12.671875 -35.625 C 14.972656 -36.707031 17.679688 -37.25 20.796875 -37.25 C 23.140625 -37.25 25.40625 -36.878906 27.59375 -36.140625 C 29.78125 -35.398438 31.738281 -34.257812 33.46875 -32.71875 C 35.207031 -31.1875 36.582031 -29.226562 37.59375 -26.84375 C 38.613281 -24.457031 39.125 -21.617188 39.125 -18.328125 L 39.125 -16.4375 L 11.5625 -16.4375 C 11.65625 -15.664062 11.832031 -14.898438 12.09375 -14.140625 C 12.351562 -13.378906 12.632812 -12.71875 12.9375 -12.15625 C 13.800781 -10.46875 14.957031 -9.15625 16.40625 -8.21875 C 17.863281 -7.289062 19.523438 -6.828125 21.390625 -6.828125 C 23.460938 -6.828125 25.203125 -7.367188 26.609375 -8.453125 C 28.023438 -9.535156 29.015625 -10.8125 29.578125 -12.28125 L 38.546875 -12.28125 C 37.847656 -9.945312 36.738281 -7.789062 35.21875 -5.8125 C 33.707031 -3.84375 31.78125 -2.257812 29.4375 -1.0625 C 27.101562 0.125 24.3125 0.71875 21.0625 0.71875 Z M 11.953125 -23.015625 L 30.15625 -23.015625 C 30.113281 -23.484375 29.992188 -24.019531 29.796875 -24.625 C 29.609375 -25.238281 29.273438 -25.828125 28.796875 -26.390625 C 27.972656 -27.691406 26.878906 -28.664062 25.515625 -29.3125 C 24.148438 -29.96875 22.664062 -30.296875 21.0625 -30.296875 C 19.457031 -30.296875 17.992188 -29.96875 16.671875 -29.3125 C 15.347656 -28.664062 14.253906 -27.691406 13.390625 -26.390625 C 12.910156 -25.828125 12.570312 -25.238281 12.375 -24.625 C 12.1875 -24.019531 12.046875 -23.484375 11.953125 -23.015625 Z M 11.953125 -23.015625 "></path></g></g></g><g fill="#000000" fill-opacity="1"><g transform="translate(102.559334, 192.994982)"><g><path d="M 21.0625 0.71875 C 17.332031 0.71875 14.066406 -0.09375 11.265625 -1.71875 C 8.472656 -3.34375 6.304688 -5.5625 4.765625 -8.375 C 3.234375 -11.195312 2.46875 -14.40625 2.46875 -18 C 2.46875 -20.382812 2.835938 -22.722656 3.578125 -25.015625 C 4.316406 -27.316406 5.441406 -29.390625 6.953125 -31.234375 C 8.472656 -33.078125 10.378906 -34.539062 12.671875 -35.625 C 14.972656 -36.707031 17.679688 -37.25 20.796875 -37.25 C 23.140625 -37.25 25.40625 -36.878906 27.59375 -36.140625 C 29.78125 -35.398438 31.738281 -34.257812 33.46875 -32.71875 C 35.207031 -31.1875 36.582031 -29.226562 37.59375 -26.84375 C 38.613281 -24.457031 39.125 -21.617188 39.125 -18.328125 L 39.125 -16.4375 L 11.5625 -16.4375 C 11.65625 -15.664062 11.832031 -14.898438 12.09375 -14.140625 C 12.351562 -13.378906 12.632812 -12.71875 12.9375 -12.15625 C 13.800781 -10.46875 14.957031 -9.15625 16.40625 -8.21875 C 17.863281 -7.289062 19.523438 -6.828125 21.390625 -6.828125 C 23.460938 -6.828125 25.203125 -7.367188 26.609375 -8.453125 C 28.023438 -9.535156 29.015625 -10.8125 29.578125 -12.28125 L 38.546875 -12.28125 C 37.847656 -9.945312 36.738281 -7.789062 35.21875 -5.8125 C 33.707031 -3.84375 31.78125 -2.257812 29.4375 -1.0625 C 27.101562 0.125 24.3125 0.71875 21.0625 0.71875 Z M 11.953125 -23.015625 L 30.15625 -23.015625 C 30.113281 -23.484375 29.992188 -24.019531 29.796875 -24.625 C 29.609375 -25.238281 29.273438 -25.828125 28.796875 -26.390625 C 27.972656 -27.691406 26.878906 -28.664062 25.515625 -29.3125 C 24.148438 -29.96875 22.664062 -30.296875 21.0625 -30.296875 C 19.457031 -30.296875 17.992188 -29.96875 16.671875 -29.3125 C 15.347656 -28.664062 14.253906 -27.691406 13.390625 -26.390625 C 12.910156 -25.828125 12.570312 -25.238281 12.375 -24.625 C 12.1875 -24.019531 12.046875 -23.484375 11.953125 -23.015625 Z M 11.953125 -23.015625 "></path></g></g></g><g fill="#000000" fill-opacity="1"><g transform="translate(234.667518, 192.994982)"><g><path d="M 8.703125 -41.765625 C 7.597656 -41.765625 6.703125 -42.109375 6.015625 -42.796875 C 5.328125 -43.484375 4.984375 -44.359375 4.984375 -45.421875 C 4.984375 -46.472656 5.328125 -47.34375 6.015625 -48.03125 C 6.703125 -48.71875 7.597656 -49.0625 8.703125 -49.0625 C 9.796875 -49.0625 10.6875 -48.71875 11.375 -48.03125 C 12.0625 -47.34375 12.40625 -46.472656 12.40625 -45.421875 C 12.40625 -44.359375 12.0625 -43.484375 11.375 -42.796875 C 10.6875 -42.109375 9.796875 -41.765625 8.703125 -41.765625 Z M 6.09375 0 L 6.09375 -35 L 11.265625 -35 L 11.265625 0 Z M 6.09375 0 "></path></g></g></g><g fill="#000000" fill-opacity="1"><g transform="translate(252.02627, 192.994982)"><g><path d="M 15.96875 0.671875 C 13.757812 0.671875 11.71875 0.378906 9.84375 -0.203125 C 7.976562 -0.785156 6.398438 -1.582031 5.109375 -2.59375 C 3.816406 -3.613281 2.90625 -4.757812 2.375 -6.03125 L 5.421875 -9.203125 L 6.09375 -9.203125 C 7.238281 -7.472656 8.613281 -6.164062 10.21875 -5.28125 C 11.820312 -4.40625 13.738281 -3.96875 15.96875 -3.96875 C 18.550781 -3.96875 20.515625 -4.46875 21.859375 -5.46875 C 23.203125 -6.476562 23.875 -7.882812 23.875 -9.6875 C 23.875 -11.0625 23.460938 -12.195312 22.640625 -13.09375 C 21.828125 -13.988281 20.507812 -14.660156 18.6875 -15.109375 L 12.796875 -16.5625 C 9.640625 -17.320312 7.335938 -18.523438 5.890625 -20.171875 C 4.441406 -21.828125 3.71875 -23.875 3.71875 -26.3125 C 3.71875 -28.21875 4.203125 -29.875 5.171875 -31.28125 C 6.148438 -32.6875 7.550781 -33.769531 9.375 -34.53125 C 11.207031 -35.289062 13.382812 -35.671875 15.90625 -35.671875 C 19.113281 -35.671875 21.644531 -35.21875 23.5 -34.3125 C 25.351562 -33.414062 26.796875 -32.164062 27.828125 -30.5625 L 24.921875 -27.703125 L 24.28125 -27.703125 C 23.15625 -28.992188 21.929688 -29.925781 20.609375 -30.5 C 19.285156 -31.070312 17.71875 -31.359375 15.90625 -31.359375 C 13.59375 -31.359375 11.820312 -30.941406 10.59375 -30.109375 C 9.375 -29.285156 8.765625 -28.09375 8.765625 -26.53125 C 8.765625 -25.113281 9.195312 -23.96875 10.0625 -23.09375 C 10.925781 -22.226562 12.4375 -21.535156 14.59375 -21.015625 L 20.40625 -19.609375 C 23.457031 -18.890625 25.660156 -17.691406 27.015625 -16.015625 C 28.367188 -14.347656 29.046875 -12.257812 29.046875 -9.75 C 29.046875 -7.695312 28.554688 -5.882812 27.578125 -4.3125 C 26.609375 -2.75 25.140625 -1.523438 23.171875 -0.640625 C 21.203125 0.234375 18.800781 0.671875 15.96875 0.671875 Z M 15.96875 0.671875 "></path></g></g></g><g fill="#000000" fill-opacity="1"><g transform="translate(284.395424, 192.994982)"><g><path d="M 33.359375 -16.3125 L 9.296875 -16.3125 C 9.441406 -12.0625 10.460938 -8.941406 12.359375 -6.953125 C 14.253906 -4.960938 16.851562 -3.96875 20.15625 -3.96875 C 22.65625 -3.96875 24.664062 -4.410156 26.1875 -5.296875 C 27.707031 -6.191406 28.898438 -7.585938 29.765625 -9.484375 L 30.4375 -9.484375 L 33.796875 -7.484375 C 32.785156 -4.953125 31.160156 -2.957031 28.921875 -1.5 C 26.691406 -0.0507812 23.769531 0.671875 20.15625 0.671875 C 16.769531 0.671875 13.859375 0.00390625 11.421875 -1.328125 C 8.992188 -2.660156 7.125 -4.679688 5.8125 -7.390625 C 4.5 -10.097656 3.84375 -13.460938 3.84375 -17.484375 C 3.84375 -21.460938 4.535156 -24.816406 5.921875 -27.546875 C 7.304688 -30.273438 9.195312 -32.3125 11.59375 -33.65625 C 14 -35 16.75 -35.671875 19.84375 -35.671875 C 24.320312 -35.671875 27.820312 -34.40625 30.34375 -31.875 C 32.863281 -29.351562 34.132812 -25.601562 34.15625 -20.625 C 34.15625 -18.675781 34.113281 -17.363281 34.03125 -16.6875 Z M 29.046875 -20.625 C 28.953125 -24.351562 28.125 -27.0625 26.5625 -28.75 C 25 -30.445312 22.757812 -31.296875 19.84375 -31.296875 C 16.769531 -31.296875 14.359375 -30.441406 12.609375 -28.734375 C 10.867188 -27.035156 9.804688 -24.332031 9.421875 -20.625 Z M 29.046875 -20.625 "></path></g></g></g><g fill="#000000" fill-opacity="1"><g transform="translate(145.707037, 192.994982)"><g><path d="M 23.671875 -5.546875 L 25.328125 -1.84375 C 24.503906 -1.019531 23.421875 -0.394531 22.078125 0.03125 C 20.734375 0.457031 19.273438 0.671875 17.703125 0.671875 C 11.023438 0.671875 7.6875 -2.710938 7.6875 -9.484375 L 7.6875 -30.78125 L 1.59375 -30.78125 L 1.59375 -35.046875 L 7.6875 -35.046875 L 7.6875 -42.4375 L 12.859375 -43.296875 L 12.859375 -35.046875 L 24.125 -35.046875 L 24.125 -30.78125 L 12.859375 -30.78125 L 12.859375 -10 C 12.859375 -5.976562 14.601562 -3.96875 18.09375 -3.96875 C 20 -3.96875 21.640625 -4.492188 23.015625 -5.546875 Z M 23.671875 -5.546875 "></path></g></g></g></svg>